<mxfile host="app.diagrams.net" modified="2021-03-15T17:41:06.646Z" agent="5.0 (Windows)" etag="nN9VrqmTn0hKeiyHK8rj" version="14.1.9" type="github">
  <diagram id="CRlLdu1EvOQOia6i6AGP" name="Page-1">
    <mxGraphModel dx="868" dy="1660" grid="1" gridSize="10" guides="1" tooltips="1" connect="1" arrows="1" fold="1" page="1" pageScale="1" pageWidth="827" pageHeight="1169" math="0" shadow="0">
      <root>
        <mxCell id="0" />
        <mxCell id="1" parent="0" />
        <mxCell id="dlbpH51tU8teJ_W7UuR7-7" value="&#xa;&#xa;&#xa;&#xa;&#xa;&#xa;&#xa;&#xa;&#xa;&#xa;&#xa;&#xa;&#xa;&#xa;&#xa;&#xa;&#xa;&#xa;&lt;span style=&quot;font-size: 12.0pt ; line-height: 115% ; font-family: &amp;quot;arial&amp;quot; , sans-serif&quot; lang=&quot;ES-VE&quot;&gt;Sistema De Compra Y Venta&#xa;De Consolas&lt;/span&gt;&#xa;&#xa;&#xa;&#xa;" style="rounded=0;whiteSpace=wrap;html=1;verticalAlign=top;labelPosition=center;verticalLabelPosition=top;align=center;" vertex="1" parent="1">
          <mxGeometry x="90" y="80" width="620" height="310" as="geometry" />
        </mxCell>
        <mxCell id="dlbpH51tU8teJ_W7UuR7-1" value="&lt;div&gt;Cliente&lt;/div&gt;" style="shape=umlActor;verticalLabelPosition=bottom;verticalAlign=top;html=1;outlineConnect=0;" vertex="1" parent="1">
          <mxGeometry x="50" y="110" width="30" height="60" as="geometry" />
        </mxCell>
        <mxCell id="dlbpH51tU8teJ_W7UuR7-2" value="Empleado" style="shape=umlActor;verticalLabelPosition=bottom;verticalAlign=top;html=1;outlineConnect=0;" vertex="1" parent="1">
          <mxGeometry x="190" y="220" width="30" height="60" as="geometry" />
        </mxCell>
        <mxCell id="dlbpH51tU8teJ_W7UuR7-3" value="Sistema" style="shape=umlActor;verticalLabelPosition=bottom;verticalAlign=top;html=1;outlineConnect=0;" vertex="1" parent="1">
          <mxGeometry x="220" y="100" width="30" height="60" as="geometry" />
        </mxCell>
        <mxCell id="dlbpH51tU8teJ_W7UuR7-6" value="&lt;div&gt;Banco&lt;/div&gt;" style="shape=umlActor;verticalLabelPosition=bottom;verticalAlign=top;html=1;outlineConnect=0;" vertex="1" parent="1">
          <mxGeometry x="400" y="220" width="30" height="60" as="geometry" />
        </mxCell>
      </root>
    </mxGraphModel>
  </diagram>
</mxfile>
